<?xml version="1.0" encoding="UTF-8" standalone="no"?>
<svg
   width="36"
   height="36"
   viewBox="0 0 36 36"
   version="1.1"
   id="svg4"
   sodipodi:docname="clarity--dollar-solid.svg"
   inkscape:version="1.4.1 (1:1.4.1+202503302257+93de688d07)"
   xmlns:inkscape="http://www.inkscape.org/namespaces/inkscape"
   xmlns:sodipodi="http://sodipodi.sourceforge.net/DTD/sodipodi-0.dtd"
   xmlns="http://www.w3.org/2000/svg"
   xmlns:svg="http://www.w3.org/2000/svg">
  <defs
     id="defs4">
    <inkscape:path-effect
       effect="powerclip"
       message=""
       id="path-effect7"
       is_visible="true"
       lpeversion="1"
       inverse="true"
       flatten="false"
       hide_clip="false" />
    <clipPath
       clipPathUnits="userSpaceOnUse"
       id="clipPath7">
      <path
         id="lpe_path-effect7"
         class="powerclip"
         d="M -2.9901838,-2.9901838 H 38.990184 V 38.990184 H -2.9901838 Z M 18,2 A 16,16 0 1 0 34,18 16,16 0 0 0 18,2 m 7.65,21.59 A 4.64,4.64 0 0 0 25.36,20.07 5.85,5.85 0 0 0 21.67,17.25 C 21,17.04 20.36,16.9 19.76,16.77 v -6.13 a 7.14,7.14 0 0 1 3.24,1.31 1.25,1.25 0 0 0 1.66,-1.84 9.67,9.67 0 0 0 -4.9,-2 V 6.25 a 1.25,1.25 0 0 0 -2.5,0 v 1.82 c -3.22,0.28 -5.05,2 -5.64,3.51 a 4.8,4.8 0 0 0 1.91,5.84 9.6,9.6 0 0 0 3.73,1.41 v 6.28 A 9.1,9.1 0 0 1 12.71,23.17 1.2522979,1.2522979 0 1 0 11,25 a 11.47,11.47 0 0 0 6.25,2.59 v 2 a 1.25,1.25 0 0 0 2.5,0 v -2 c 2.29,-0.16 4.9,-1 5.9,-4" />
    </clipPath>
    <clipPath
       clipPathUnits="userSpaceOnUse"
       id="clipPath15">
      <path
         id="path16"
         clip-path="url(#clipPath7)"
         style="fill:#4cc238;fill-opacity:0.252382;stroke-width:1.88976;stroke-linecap:round"
         d="M 18.908345,2.5351562 2.2481883,18.707031 16.818501,33.71875 33.478657,17.546875 Z m -1.648438,8.0156248 v 5.71875 a 6.5,6.5 0 0 1 -2.320312,-0.919922 2.31,2.31 0 0 1 -1,-2.86914 c 0.25,-0.64 1.220312,-1.679688 3.320312,-1.929688 z m 2.490234,8.789063 c 0.38,0.08 0.769922,0.180781 1.169922,0.300781 a 3.5,3.5 0 0 1 2.208985,1.580078 2.15,2.15 0 0 1 0.15039,1.580078 c -0.46,1.4 -1.529297,2.098828 -3.529297,2.298828 z"
         transform="translate(0.35337418)" />
    </clipPath>
  </defs>
  <sodipodi:namedview
     id="namedview4"
     pagecolor="#505050"
     bordercolor="#eeeeee"
     borderopacity="1"
     inkscape:showpageshadow="0"
     inkscape:pageopacity="0"
     inkscape:pagecheckerboard="0"
     inkscape:deskcolor="#505050"
     inkscape:zoom="16.008112"
     inkscape:cx="30.422076"
     inkscape:cy="13.461925"
     inkscape:window-width="1920"
     inkscape:window-height="1011"
     inkscape:window-x="0"
     inkscape:window-y="1112"
     inkscape:window-maximized="1"
     inkscape:current-layer="svg4" />
  <ellipse
     style="opacity:1;fill:#000000;fill-opacity:1;stroke-width:1.88976;stroke-linecap:round"
     id="path15"
     cx="19.052841"
     cy="18.209518"
     rx="9.9324646"
     ry="13.64933"
     clip-path="url(#clipPath15)"
     transform="translate(-1.0528412,-0.20951843)" />
  <path
     fill="none"
     d="M0 0h36v36H0z"
     id="path4" />
  <circle
     style="fill:#4cc238;fill-opacity:0.252382;stroke-width:1.88976;stroke-linecap:round"
     id="path12"
     cx="0"
     cy="0"
     r="0" />
</svg>
